<svg id="Слой_1" data-name="Слой 1" xmlns="http://www.w3.org/2000/svg" viewBox="0 0 500 500"><defs><style>.cls-1{fill:#f7f2f2;}.cls-2{fill:#ffc6d7;}.cls-3{fill:#98d0ff;}.cls-4{font-size:405.58px;fill:#0d1117;font-family:Judson;}</style></defs><title>favicon</title><rect class="cls-1" width="500" height="500" rx="60"/><path class="cls-2" d="M500,113.93V440a60,60,0,0,1-60,60H245.21c47.61-4.14,129.47-.6,143.79-38,14-36.5-54.29-65.25-64-144-7.8-63.25,25-136.07,84-174C412.71,141.61,453.15,116.38,500,113.93Z"/><path class="cls-3" d="M430.14,0C405.05,49.43,300.39,26.24,209,100c-90.93,73.39-78,169.57-122,172-28.84,1.6-60.31-38.37-87-90.32V60A60,60,0,0,1,60,0Z"/><text class="cls-4" transform="translate(0.78 360.42)">QR</text></svg>